<svg xmlns="http://www.w3.org/2000/svg" fill="none" viewBox="0 0 3001 3000" id="CardPayment">
  <g clip-path="url(#clip0_101_35843)" fill="#000000" class="color000000 svgShape">
    <path fill="#f1f1f1" d="M1794.01 366.101H1906.76V441.268H1794.01V366.101Z" class="colorf1f1f1 svgShape"></path>
    <path fill="#46f19b" d="M1290.39 -62.3521H1944.34V403.685H1290.39V-62.3521Z" class="colorf15846 svgShape"></path>
    <path fill="#f1f1f1" d="M275.628 1132.81C275.628 1112.05 292.455 1095.22 313.212 1095.22H1177.63C1198.39 1095.22 1215.22 1112.05 1215.22 1132.81V2643.67C1215.22 2664.42 1198.39 2681.25 1177.63 2681.25H313.212C292.455 2681.25 275.628 2664.42 275.628 2643.67V1132.81Z" class="colorf1f1f1 svgShape"></path>
    <path fill="#16b666" fill-rule="evenodd" d="M-2.49023 2940.58C-2.49023 2936.43 0.875116 2933.06 5.02649 2933.06H2992.92C2997.07 2933.06 3000.44 2936.43 3000.44 2940.58C3000.44 2944.73 2997.07 2948.09 2992.92 2948.09H5.02649C0.875116 2948.09 -2.49023 2944.73 -2.49023 2940.58Z" clip-rule="evenodd" class="color3e3d3d svgShape"></path>
    <path fill="#f1f1f1" d="M846.899 802.071C846.899 719.043 914.206 651.736 997.234 651.736H1854.14C1937.17 651.736 2004.47 719.043 2004.47 802.071V2305.41C2004.47 2388.44 1937.17 2455.75 1854.14 2455.75H997.234C914.206 2455.75 846.899 2388.44 846.899 2305.41V802.071Z" class="colorf1f1f1 svgShape"></path>
    <path fill="#16b666" fill-rule="evenodd" d="M839.382 802.071C839.382 714.892 910.055 644.22 997.233 644.22H1854.14C1941.32 644.22 2011.99 714.892 2011.99 802.071V2305.41C2011.99 2392.59 1941.32 2463.27 1854.14 2463.27H997.233C910.055 2463.27 839.382 2392.59 839.382 2305.41V802.071ZM997.233 659.253C918.357 659.253 854.416 723.195 854.416 802.071V2305.41C854.416 2384.29 918.357 2448.23 997.233 2448.23H1854.14C1933.02 2448.23 1996.96 2384.29 1996.96 2305.41V802.071C1996.96 723.195 1933.02 659.253 1854.14 659.253H997.233Z" clip-rule="evenodd" class="color3e3d3d svgShape"></path>
    <path fill="#ffffff" fill-rule="evenodd" d="M907.033 681.792C932.159 662.92 963.39 651.736 997.234 651.736H1854.14C1887.98 651.736 1919.21 662.92 1944.34 681.792V2425.69C1919.21 2444.57 1887.98 2455.75 1854.14 2455.75H997.234C963.39 2455.75 932.159 2444.57 907.033 2425.69V681.792Z" clip-rule="evenodd" class="colorffffff svgShape"></path>
    <path fill="#f1f1f1" d="M2545.68 1655.22C2545.68 1740.32 2476.69 1809.31 2391.58 1809.31C2306.48 1809.31 2237.49 1740.32 2237.49 1655.22C2237.49 1570.12 2306.48 1501.13 2391.58 1501.13C2476.69 1501.13 2545.68 1570.12 2545.68 1655.22Z" class="colorf1f1f1 svgShape"></path>
    <path fill="#f1f1f1" d="M997.233 1012.54C997.233 991.782 1014.06 974.955 1034.82 974.955H1816.56C1837.31 974.955 1854.14 991.782 1854.14 1012.54V1516.16C1854.14 1536.92 1837.31 1553.74 1816.56 1553.74H1034.82C1014.06 1553.74 997.233 1536.92 997.233 1516.16V1012.54Z" opacity=".5" class="colorf1f1f1 svgShape"></path>
    <path fill="#46f19b" d="M997.237 1704.08H1215.22V1839.38H997.237V1704.08ZM1305.42 1704.08H1523.4V1839.38H1305.42V1704.08ZM1613.6 1704.08H1854.14V1839.38H1613.6V1704.08ZM997.233 1922.06H1215.22V2057.36H997.233V1922.06ZM1305.42 1922.06H1523.4V2057.36H1305.42V1922.06ZM1613.6 1922.06H1854.14V2057.36H1613.6V1922.06Z" class="colorf15846 svgShape"></path>
    <path fill="#f1f1f1" d="M997.233 2147.56H1215.22V2282.86H997.233V2147.56Z" class="colorf1f1f1 svgShape"></path>
    <path fill="#46f19b" d="M1305.42 2147.56H1523.4V2282.86H1305.42V2147.56Z" class="colorf15846 svgShape"></path>
    <path fill="#f1f1f1" d="M1613.6 2147.56H1854.14V2282.86H1613.6V2147.56Z" class="colorf1f1f1 svgShape"></path>
    <path fill="#16b666" fill-rule="evenodd" d="M839.382 802.071C839.382 714.892 910.055 644.22 997.233 644.22H1854.14C1941.32 644.22 2011.99 714.892 2011.99 802.071V2305.41C2011.99 2392.59 1941.32 2463.27 1854.14 2463.27H997.233C910.055 2463.27 839.382 2392.59 839.382 2305.41V802.071ZM997.233 659.253C918.357 659.253 854.416 723.195 854.416 802.071V2305.41C854.416 2384.29 918.357 2448.23 997.233 2448.23H1854.14C1933.02 2448.23 1996.96 2384.29 1996.96 2305.41V802.071C1996.96 723.195 1933.02 659.253 1854.14 659.253H997.233Z" clip-rule="evenodd" class="color3e3d3d svgShape"></path>
    <path fill="#f1f1f1" d="M1057.37 321H1794.01V839.654H1057.37V321Z" class="colorf1f1f1 svgShape"></path>
    <path fill="#f1f1f1" fill-rule="evenodd" d="M1794.01 321.001H1057.37V279.659L1057.53 279.474C1057.42 278.298 1057.37 277.106 1057.37 275.9C1057.37 255.144 1074.19 238.317 1094.95 238.317H1831.59L1794.01 279.659V321.001Z" clip-rule="evenodd" class="colorf1f1f1 svgShape"></path>
    <path fill="#46f19b" d="M1944.34 403.685C1944.34 424.442 1927.51 441.268 1906.76 441.268C1886 441.268 1869.17 424.442 1869.17 403.685C1869.17 382.928 1886 366.101 1906.76 366.101C1927.51 366.101 1944.34 382.928 1944.34 403.685Z" class="colorf15846 svgShape"></path>
    <path fill="#f1f1f1" d="M1869.17 275.9C1869.17 296.657 1852.35 313.484 1831.59 313.484C1810.83 313.484 1794.01 296.657 1794.01 275.9C1794.01 255.144 1810.83 238.317 1831.59 238.317C1852.35 238.317 1869.17 255.144 1869.17 275.9Z" class="colorf1f1f1 svgShape"></path>
    <path fill="#f1f1f1" d="M1794.01 275.9H1869.17V441.268H1794.01V275.9ZM471.063 1095.22H681.531V2681.25H471.063V1095.22Z" class="colorf1f1f1 svgShape"></path>
    <path fill="#f1f1f1" fill-rule="evenodd" d="M1429.44 1083.95C1329.81 1083.95 1249.04 1164.72 1249.04 1264.35C1249.04 1363.98 1329.81 1444.75 1429.44 1444.75C1529.08 1444.75 1609.85 1363.98 1609.85 1264.35C1609.85 1164.72 1529.08 1083.95 1429.44 1083.95ZM1211.46 1264.35C1211.46 1143.96 1309.06 1046.36 1429.44 1046.36C1549.83 1046.36 1647.43 1143.96 1647.43 1264.35C1647.43 1384.74 1549.83 1482.33 1429.44 1482.33C1309.06 1482.33 1211.46 1384.74 1211.46 1264.35Z" clip-rule="evenodd" class="colorf1f1f1 svgShape"></path>
    <path fill="#46f19b" fill-rule="evenodd" d="M1690.16 1154.27L1399.29 1394.55L1274.52 1214.33L1336.32 1171.55L1414.51 1284.48L1642.29 1096.31L1690.16 1154.27Z" clip-rule="evenodd" class="colorf15846 svgShape"></path>
    <path fill="#f1f1f1" d="M715.357 775.762C715.357 860.865 644.684 929.855 557.505 929.855C470.327 929.855 399.654 860.865 399.654 775.762C399.654 690.659 470.327 621.669 557.505 621.669C644.684 621.669 715.357 690.659 715.357 775.762Z" class="colorf1f1f1 svgShape"></path>
    <path fill="#f1f1f1" fill-rule="evenodd" d="M669.143 742.712L495.213 854.524L436.294 759.346L468.25 739.563L507.047 802.237L648.82 711.097L669.143 742.712Z" clip-rule="evenodd" class="colorf1f1f1 svgShape"></path>
    <path fill="#46f19b" d="M2432.93 1211.73C2432.93 1346.65 2323.55 1456.03 2188.63 1456.03C2053.71 1456.03 1944.34 1346.65 1944.34 1211.73C1944.34 1076.81 2053.71 967.438 2188.63 967.438C2323.55 967.438 2432.93 1076.81 2432.93 1211.73Z" class="colorf15846 svgShape"></path>
    <path fill="#96efc2" fill-rule="evenodd" d="M2004.47 2008.5L1752.66 1805.55C1741.3 1796.81 1727.81 1780.53 1715.25 1758.81C1677.57 1693.66 1648.19 1579.49 1709.2 1472.56C1713.86 1464.39 1721.3 1459.28 1729.58 1457.29C1735.08 1455.98 1740.94 1456.04 1746.6 1457.5C1751.34 1458.72 1755.93 1460.92 1760.06 1464.11C1914.8 1583.72 2177.37 1788.66 2188.63 1805.55C2191.36 1809.65 2195.78 1814.14 2201.31 1819.76C2201.31 1819.76 2201.32 1819.76 2201.32 1819.76C2226.25 1845.08 2273.71 1893.3 2290.11 2031.05C2292.73 2053.09 2295.87 2075.78 2299.07 2098.93C2318.78 2241.61 2340.89 2401.57 2260.04 2530.92C2257.54 2564.74 2290.11 2693.28 2440.44 2936.82H1455.75C1448.24 2919.28 1427.19 2881.2 1403.14 2869.17C1399.17 2867.19 1393.12 2864.62 1385.46 2861.37C1335 2839.95 1214.81 2788.93 1162.6 2681.25H1177.63C1198.39 2681.25 1215.22 2664.42 1215.22 2643.67L1215.22 2621.12L1215.22 2455.75H1861.66C1940.53 2455.75 2004.47 2391.81 2004.47 2312.93V2008.5Z" clip-rule="evenodd" class="colorefcb96 svgShape"></path>
    <path fill="#f1f1f1" d="M1057.37 787.038H1794.01V839.655H1057.37V787.038Z" class="colorf1f1f1 svgShape"></path>
    <path fill="#16b666" fill-rule="evenodd" d="M1677.5 411.201H1166.36V396.168H1677.5V411.201ZM1677.5 542.744H1166.36V527.711H1677.5V542.744ZM1677.5 663.012H1166.36V647.978H1677.5V663.012Z" clip-rule="evenodd" class="color3e3d3d svgShape"></path>
    <path fill="#ffffff" fill-rule="evenodd" d="M2192.39 1042.61C2204.85 1042.61 2214.94 1052.7 2214.94 1065.16V1075.62C2256.67 1076.86 2290.11 1111.08 2290.11 1153.1H2245.01C2245.01 1135.2 2230.5 1120.69 2212.59 1120.69H2175.86C2155.93 1120.69 2139.78 1136.84 2139.78 1156.77 2139.78 1176.69 2155.93 1192.85 2175.86 1192.85H2212.59C2255.4 1192.85 2290.11 1227.55 2290.11 1270.36 2290.11 1312.39 2256.67 1346.6 2214.94 1347.84V1358.31C2214.94 1370.76 2204.85 1380.86 2192.39 1380.86 2179.94 1380.86 2169.84 1370.76 2169.84 1358.31V1347.88H2164.86C2126.1 1347.88 2094.67 1316.45 2094.67 1277.69H2139.78C2139.78 1291.55 2151.01 1302.78 2164.86 1302.78H2212.59C2230.5 1302.78 2245.01 1288.27 2245.01 1270.36 2245.01 1252.46 2230.5 1237.95 2212.59 1237.95H2175.86C2131.02 1237.95 2094.67 1201.6 2094.67 1156.77 2094.67 1113.95 2127.82 1078.88 2169.84 1075.8V1065.16C2169.84 1052.7 2179.94 1042.61 2192.39 1042.61ZM2395.34 1553.74C2403.65 1553.74 2410.38 1560.47 2410.38 1568.78V1573.25C2435.49 1574.47 2455.48 1595.22 2455.48 1620.64H2425.41C2425.41 1611.04 2417.63 1603.26 2408.03 1603.26H2384.82C2374.03 1603.26 2365.28 1612.01 2365.28 1622.8 2365.28 1633.6 2374.03 1642.35 2384.82 1642.35H2408.03C2434.23 1642.35 2455.48 1663.59 2455.48 1689.8 2455.48 1715.21 2435.49 1735.96 2410.38 1737.19V1741.66C2410.38 1749.96 2403.65 1756.69 2395.34 1756.69 2387.04 1756.69 2380.31 1749.96 2380.31 1741.66V1737.24H2378.34C2354.52 1737.24 2335.21 1717.94 2335.21 1694.12H2365.28C2365.28 1701.33 2371.12 1707.18 2378.34 1707.18H2408.03C2417.63 1707.18 2425.41 1699.4 2425.41 1689.8 2425.41 1680.2 2417.63 1672.41 2408.03 1672.41H2384.82C2357.42 1672.41 2335.21 1650.2 2335.21 1622.8 2335.21 1596.92 2355.02 1575.67 2380.31 1573.39V1568.78C2380.31 1560.47 2387.04 1553.74 2395.34 1553.74Z" clip-rule="evenodd" class="colorffffff svgShape"></path>
  </g>
  <defs>
    <clipPath id="clip0_101_35843">
      <rect width="3000" height="3000" fill="#ffffff" transform="translate(.44)" class="colorffffff svgShape"></rect>
    </clipPath>
  </defs>
</svg>
